<svg viewBox="0 0 32 32" fill="none" xmlns="http://www.w3.org/2000/svg" id="Skull-Flat--Streamline-Fluent-Emoji" height="32" width="32">
  <desc>
    Skull Flat Streamline Emoji: https://streamlinehq.com
  </desc>
  <path d="M16.0278 1C7.74582 1 1.02777 7.71514 1.02777 15.995c0 2.7731 0.7622 4.7433 2.28666 6.0328 1.26124 1.067 2.91828 1.5543 4.71334 1.785v4.1879C8.02777 29.6529 9.37582 31 11.0278 31c1.0412 0 1.9617 -0.5351 2.5 -1.3446 0.5383 0.8095 1.4588 1.3446 2.5 1.3446s1.9617 -0.5351 2.5 -1.3446c0.5383 0.8095 1.4588 1.3446 2.5 1.3446 1.6519 0 3 -1.3471 3 -2.9993V23.811c1.7944 -0.2338 3.4516 -0.7209 4.7129 -1.7865 1.5247 -1.2883 2.2871 -3.2562 2.2871 -6.0295 0 -8.27986 -6.7181 -14.995 -15 -14.995Z" fill="#9b9b9b" stroke-width="1"></path>
  <path d="M16.0278 2C8.29777 2 2.02777 8.26776 2.02777 15.995c0 5.1782 2.82 6.5677 7 6.9175v5.0882c0 1.0996 0.9 1.9993 2.00003 1.9993 1.1 0 2 -0.8997 2 -1.9993v-2.5089c0 -0.2762 0.2238 -0.5 0.5 -0.5 0.2761 0 0.5 0.2238 0.5 0.5v2.5089c0 1.0996 0.9 1.9993 2 1.9993s2 -0.8997 2 -1.9993v-2.5089c0 -0.2762 0.2238 -0.5 0.5 -0.5 0.2761 0 0.5 0.2238 0.5 0.5v2.5089c0 1.0996 0.9 1.9993 2 1.9993s2 -0.8997 2 -1.9993v-5.0882c4.18 -0.3598 7 -1.7393 7 -6.9175 0 -7.72724 -6.27 -13.995 -14 -13.995Z" fill="#ffffff" stroke-width="1"></path>
  <path d="M14 16.7617C14 19.3928 11.9866 20 9.5 20 7.01342 20 5 19.3928 5 16.7617 5 14.1305 7.01342 12 9.5 12c2.4866 0 4.5 2.1305 4.5 4.7617Z" fill="#402a32" stroke-width="1"></path>
  <path d="M27 16.7617C27 19.3928 24.9866 20 22.5 20s-4.5 -0.6072 -4.5 -3.2383C18 14.1305 20.0134 12 22.5 12s4.5 2.1305 4.5 4.7617Z" fill="#402a32" stroke-width="1"></path>
  <path d="M15.01 21.97h1.97c0.5 0 0.85 -0.49 0.68 -0.96l-0.37 -1.08c-0.19 -0.56 -0.71 -0.93 -1.3 -0.93 -0.59 0 -1.12 0.38 -1.31 0.93l-0.36 1.08c-0.16 0.47 0.19 0.96 0.69 0.96Z" fill="#402a32" stroke-width="1"></path>
</svg>